<svg viewBox="0 0 447.99 490.652" xmlns="http://www.w3.org/2000/svg"><path d="M422.236 245.335L195.121 472.449a10.665 10.665 0 0 0 15.083 15.083L444.87 252.865a10.674 10.674 0 0 0 0-15.083L210.203 3.115A10.716 10.716 0 0 0 202.651 0a10.562 10.562 0 0 0-7.531 3.136 10.674 10.674 0 0 0 0 15.083z"></path><path d="M230.236 245.335L3.121 472.449a10.665 10.665 0 0 0 15.083 15.083L252.87 252.865a10.674 10.674 0 0 0 0-15.083L18.203 3.115A10.716 10.716 0 0 0 10.651 0 10.562 10.562 0 0 0 3.12 3.136a10.674 10.674 0 0 0 0 15.083z"></path></svg>