<svg xmlns="http://www.w3.org/2000/svg" viewBox="0 0 21.504 40.5"><path d="M13.177 7a4.04 4.04 0 0 1 1.261 3.1 4.652 4.652 0 0 1-.617 2.4 10.16 10.16 0 0 1-1.568 2.2c-.635.7-1.316 1.4-2.044 2.2a21.92 21.92 0 0 0-2.044 2.2 16.742 16.742 0 0 0-1.569 2.7 8.599 8.599 0 0 0-.616 3.3q0 .6.056 1.2a7.385 7.385 0 0 0 .168 1.201h5.825a3.638 3.638 0 0 1-.056-.7v-.6a6.416 6.416 0 0 1 .7-3 12.844 12.844 0 0 1 1.765-2.6 23.267 23.267 0 0 1 2.3-2.3 25.82 25.82 0 0 0 2.3-2.5 10.073 10.073 0 0 0 1.764-2.799 7.84 7.84 0 0 0 .7-3.4 11.099 11.099 0 0 0-.5-3.2 7.827 7.827 0 0 0-1.792-3.1 10.042 10.042 0 0 0-3.472-2.3 14.548 14.548 0 0 0-5.545-1 24.806 24.806 0 0 0-5.461.7A20.464 20.464 0 0 0 0 2.602l1.9 5.2a16.538 16.538 0 0 1 3.752-1.5 15.312 15.312 0 0 1 3.753-.5A5.292 5.292 0 0 1 13.177 7zm-.7 25.8a4.5 4.5 0 0 0-7.673 3.3 4.323 4.323 0 0 0 1.316 3.2 4.808 4.808 0 0 0 6.357 0 4.369 4.369 0 0 0 1.288-3.2 4.6 4.6 0 0 0-1.288-3.3z"/></svg>