<svg data-name="Слой 1" xmlns="http://www.w3.org/2000/svg" viewBox="0 0 45.634 45.634"><defs><linearGradient id="a" y1="22.817" x2="45.634" y2="22.817" gradientUnits="userSpaceOnUse"><stop offset="0" stop-color="#f4d58d"/><stop offset="1" stop-color="#f0b644"/></linearGradient></defs><path d="M44.333 32.247l-9.983-4.278a2.14 2.14 0 0 0-2.496.615l-4.42 5.401A33.037 33.037 0 0 1 11.64 18.192l5.402-4.421a2.134 2.134 0 0 0 .615-2.496l-4.278-9.982a2.153 2.153 0 0 0-2.452-1.24l-9.27 2.14A2.14 2.14 0 0 0 0 4.278a41.352 41.352 0 0 0 41.357 41.356 2.14 2.14 0 0 0 2.085-1.657l2.14-9.27a2.165 2.165 0 0 0-1.25-2.46z" fill="url(#a)"/></svg>