<svg xmlns="http://www.w3.org/2000/svg" viewBox="0 0 512 512"><linearGradient id="a" gradientUnits="userSpaceOnUse" x1="290.856" y1="509.148" x2="297.277" y2="509.148"><stop offset="0" stop-color="#f4d58d"/><stop offset="1" stop-color="#f0b644"/></linearGradient><path d="M297.3 508.7c-2.1.3-4.3.7-6.4 1 2.1-.4 4.2-.7 6.4-1z" fill="url(#a)"/><linearGradient id="b" gradientUnits="userSpaceOnUse" x1="299.34" y1="508.06" x2="302.398" y2="508.06"><stop offset="0" stop-color="#f4d58d"/><stop offset="1" stop-color="#f0b644"/></linearGradient><path d="M302.4 507.8c-1 .2-2 .4-3.1.5 1.1-.1 2.1-.3 3.1-.5z" fill="url(#b)"/><linearGradient id="c" gradientUnits="userSpaceOnUse" x1="277.609" y1="510.711" x2="285.137" y2="510.711"><stop offset="0" stop-color="#f4d58d"/><stop offset="1" stop-color="#f0b644"/></linearGradient><path d="M285.1 510.3c-2.5.3-5 .5-7.5.7 2.5-.1 5-.4 7.5-.7z" fill="url(#c)"/><linearGradient id="d" gradientUnits="userSpaceOnUse" x1="286.445" y1="509.963" x2="290.055" y2="509.963"><stop offset="0" stop-color="#f4d58d"/><stop offset="1" stop-color="#f0b644"/></linearGradient><path d="M290.1 509.7c-1.2.2-2.4.3-3.6.4 1.1-.1 2.4-.2 3.6-.4z" fill="url(#d)"/><linearGradient id="e" gradientUnits="userSpaceOnUse" x1="306.664" y1="506.693" x2="309.367" y2="506.693"><stop offset="0" stop-color="#f4d58d"/><stop offset="1" stop-color="#f0b644"/></linearGradient><path d="M309.4 506.4l-2.7.6 2.7-.6z" fill="url(#e)"/><linearGradient id="f" gradientUnits="userSpaceOnUse" x1="324.484" y1="502.416" x2="326.664" y2="502.416"><stop offset="0" stop-color="#f4d58d"/><stop offset="1" stop-color="#f0b644"/></linearGradient><path d="M326.7 502.1c-.7.2-1.5.4-2.2.6.7-.2 1.4-.4 2.2-.6z" fill="url(#f)"/><linearGradient id="g" gradientUnits="userSpaceOnUse" x1="319.059" y1="503.852" x2="321.434" y2="503.852"><stop offset="0" stop-color="#f4d58d"/><stop offset="1" stop-color="#f0b644"/></linearGradient><path d="M321.4 503.5l-2.4.6c.9-.1 1.6-.3 2.4-.6z" fill="url(#g)"/><linearGradient id="h" gradientUnits="userSpaceOnUse" x1="312.066" y1="505.537" x2="314.59" y2="505.537"><stop offset="0" stop-color="#f4d58d"/><stop offset="1" stop-color="#f0b644"/></linearGradient><path d="M314.6 505.3c-.8.2-1.7.4-2.5.6.8-.3 1.7-.5 2.5-.6z" fill="url(#h)"/><linearGradient id="i" gradientUnits="userSpaceOnUse" x1="273.481" y1="511.242" x2="277.527" y2="511.242"><stop offset="0" stop-color="#f4d58d"/><stop offset="1" stop-color="#f0b644"/></linearGradient><path d="M277.5 511.1c-1.3.1-2.7.2-4 .3 1.3-.1 2.7-.2 4-.3z" fill="url(#i)"/><linearGradient id="j" gradientUnits="userSpaceOnUse" x1="0" y1="256" x2="512" y2="256"><stop offset="0" stop-color="#f4d58d"/><stop offset="1" stop-color="#f0b644"/></linearGradient><path d="M512 256C512 114.6 397.4 0 256 0S0 114.6 0 256s114.6 256 256 256c1.5 0 3 0 4.5-.1V312.7h-55v-64.1h55v-47.2c0-54.7 33.4-84.5 82.2-84.5 23.4 0 43.5 1.7 49.3 2.5v57.2h-33.6c-26.5 0-31.7 12.6-31.7 31.1v40.8h63.5l-8.3 64.1h-55.2v189.5C433.7 471.4 512 372.9 512 256z" fill="url(#j)"/><linearGradient id="k" gradientUnits="userSpaceOnUse" x1="264.891" y1="511.629" x2="272.914" y2="511.629"><stop offset="0" stop-color="#f4d58d"/><stop offset="1" stop-color="#f0b644"/></linearGradient><path d="M272.9 511.4c-2.7.2-5.3.3-8 .4 2.7-.1 5.4-.2 8-.4z" fill="url(#k)"/><linearGradient id="l" gradientUnits="userSpaceOnUse" x1="260.504" y1="511.889" x2="264.754" y2="511.889"><stop offset="0" stop-color="#f4d58d"/><stop offset="1" stop-color="#f0b644"/></linearGradient><path d="M264.8 511.8c-1.4 0-2.8.1-4.3.1 1.4 0 2.8 0 4.3-.1z" fill="url(#l)"/></svg>