<svg xmlns="http://www.w3.org/2000/svg" viewBox="0 0 512 512"><linearGradient id="a" gradientUnits="userSpaceOnUse" x1="207" y1="256" x2="305" y2="256"><stop offset="0" stop-color="#f4d58d"/><stop offset="1" stop-color="#f0b644"/></linearGradient><path d="M305 256c0 27.1-21.9 49-49 49s-49-21.9-49-49 21.9-49 49-49 49 21.9 49 49z" fill="url(#a)"/><linearGradient id="b" gradientUnits="userSpaceOnUse" x1="135.484" y1="256.002" x2="376.512" y2="256.002"><stop offset="0" stop-color="#f4d58d"/><stop offset="1" stop-color="#f0b644"/></linearGradient><path d="M370.6 169.3c-2.4-6.4-6.1-12.2-11-16.9-4.7-4.9-10.5-8.6-16.9-11-5.2-2-13-4.4-27.3-5.1-15.5-.7-20.2-.9-59.4-.9-39.3 0-43.9.1-59.4.9-14.3.7-22.1 3.1-27.3 5.1-6.4 2.4-12.2 6.1-16.9 11-4.9 4.7-8.6 10.5-11 16.9-2 5.2-4.4 13-5.1 27.3-.7 15.5-.9 20.1-.9 59.4s.2 43.9.9 59.4c.7 14.3 3 22.1 5.1 27.3 2.4 6.4 6.1 12.2 11 16.9 4.7 4.9 10.5 8.6 16.9 11 5.2 2 13 4.4 27.3 5.1 15.5.7 20.1.9 59.4.9s43.9-.1 59.4-.9c14.3-.7 22.1-3 27.3-5.1 12.8-4.9 23-15.1 27.9-27.9 2-5.2 4.4-13 5.1-27.3.7-15.5.9-20.2.9-59.4 0-39.3-.1-43.9-.9-59.4-.7-14.3-3.1-22.1-5.1-27.3zM256 331.5c-41.7 0-75.5-33.8-75.5-75.5s33.8-75.5 75.5-75.5 75.5 33.8 75.5 75.5-33.8 75.5-75.5 75.5zm78.5-136.3c-9.7 0-17.6-7.9-17.6-17.6s7.9-17.6 17.6-17.6 17.6 7.9 17.6 17.6c0 9.7-7.9 17.6-17.6 17.6z" fill="url(#b)"/><linearGradient id="c" gradientUnits="userSpaceOnUse" x1="0" y1="256" x2="512" y2="256"><stop offset="0" stop-color="#f4d58d"/><stop offset="1" stop-color="#f0b644"/></linearGradient><path d="M256 0C114.6 0 0 114.6 0 256s114.6 256 256 256 256-114.6 256-256S397.4 0 256 0zm146.1 316.6c-.7 15.6-3.2 26.3-6.8 35.7-7.6 19.7-23.2 35.4-43 43-9.3 3.6-20 6.1-35.7 6.8-15.7.7-20.7.9-60.6.9-39.9 0-44.9-.2-60.6-.9-15.6-.7-26.3-3.2-35.7-6.8-9.8-3.7-18.7-9.5-26-17-7.5-7.3-13.3-16.2-17-26-3.6-9.3-6.1-20-6.8-35.7-.7-15.7-.9-20.7-.9-60.6s.2-44.9.9-60.6c.7-15.6 3.2-26.3 6.8-35.7 3.7-9.8 9.5-18.7 17-26 7.3-7.5 16.2-13.3 26-17 9.4-3.6 20-6.1 35.7-6.8 15.7-.7 20.7-.9 60.6-.9s44.9.2 60.6.9c15.6.7 26.3 3.2 35.7 6.8 9.8 3.7 18.7 9.5 26 17 7.5 7.3 13.3 16.2 17 26 3.6 9.4 6.1 20 6.8 35.7.7 15.7.9 20.7.9 60.6s-.2 44.9-.9 60.6z" fill="url(#c)"/></svg>