<svg data-name="Layer 1" xmlns="http://www.w3.org/2000/svg" viewBox="0 0 97.052 106.277"><path d="M68.484 13.17v30.246c0 5.887-1.664 10.173-5.115 13.13a19.91 19.91 0 0 1-13.271 5.081c-.025 0-.047-.003-.072-.003-8.302 0-14.92-6.49-15.266-6.84l-9.168 17.652a49.627 49.627 0 0 0 24.506 6.885c1.225 0 2.423-.053 3.606-.136.43-.03.849-.078 1.273-.119.729-.07 1.451-.151 2.163-.253q.786-.112 1.56-.249c.56-.1 1.11-.217 1.66-.337.592-.13 1.187-.254 1.768-.407.216-.057.424-.129.638-.19a40.018 40.018 0 0 0 4.737-1.646c.059-.025.12-.046.178-.071.8-.341 1.58-.716 2.351-1.109l.353-.18a38.549 38.549 0 0 0 7.273-4.873l.002-.002c8.097-6.949 10.857-16.066 10.857-27.098V13.17z" fill="#f0b644"/><path d="M48.45 28.49l13.46 22.34c2.661-2.887 1.897-7.663 1.897-12.843V10.536L58.282 0H41.789L0 79.32l22.012-.05zM29.996 13.17h-19.64l.128 37.035L29.996 13.17zm59.177 51.023H68.156l7.879 14.914h-.126l.027.052 21.116-.052zM53.223 99.75a5.386 5.386 0 0 0-.776-6.698 5.712 5.712 0 0 0-4.222-1.577H41.75v14.56h2.936v-11.89h3.465a2.729 2.729 0 0 1 2.28.848 2.689 2.689 0 0 1 .68 1.869 2.748 2.748 0 0 1-.728 1.868 2.893 2.893 0 0 1-2.208.8h-1.509l3.887 6.504h3.349l-2.742-4.465a5.024 5.024 0 0 0 2.062-1.82zm-20.966 4.804a6.172 6.172 0 0 1-4.441 1.723 6.284 6.284 0 0 1-4.586-1.796 6.646 6.646 0 0 1-1.844-4.829v-8.177h2.936v8.323a3.676 3.676 0 0 0 1.019 2.767 3.228 3.228 0 0 0 2.475 1.043 3.526 3.526 0 0 0 2.5-1.068 3.58 3.58 0 0 0 .97-2.742v-8.323h2.936v8.177a6.494 6.494 0 0 1-1.965 4.902zm39.24 0a6.172 6.172 0 0 1-4.44 1.723 6.284 6.284 0 0 1-4.587-1.796 6.646 6.646 0 0 1-1.844-4.829v-8.177h2.936v8.323a3.676 3.676 0 0 0 1.02 2.767 3.228 3.228 0 0 0 2.474 1.043 3.526 3.526 0 0 0 2.5-1.068 3.58 3.58 0 0 0 .97-2.742v-8.323h2.937v8.177a6.494 6.494 0 0 1-1.966 4.902zm-65.679-1.881l2.547 3.513 2.547-3.513H5.818zm90.141-11.376l-7.451 8.254-7.589-8.254h-.37v14.737h2.864v-7.602l5.023 5.411 4.804-5.387.097 7.578h2.985V91.297h-.363z" fill="#f0b644"/><path fill="#f0b644" d="M8.171 91.297L.73 106.034h3.129l4.503-9.407 4.527 9.407h3.215L8.663 91.297h-.492z"/></svg>