<svg data-name="Layer 1" xmlns="http://www.w3.org/2000/svg" xmlns:xlink="http://www.w3.org/1999/xlink" viewBox="0 0 512.001 384"><defs><linearGradient id="a" x1="6.914" y1="117.328" x2="505.087" y2="117.328" gradientUnits="userSpaceOnUse"><stop offset="0" stop-color="#f4d58d"/><stop offset="1" stop-color="#f0b644"/></linearGradient><linearGradient id="b" x1="338.344" y1="194.888" x2="512.001" y2="194.888" xlink:href="#a"/><linearGradient id="c" x1="0" y1="194.893" x2="173.668" y2="194.893" xlink:href="#a"/><linearGradient id="d" x1="8.624" y1="302.308" x2="503.386" y2="302.308" xlink:href="#a"/></defs><path d="M10.688 31.156C80.958 90.667 204.26 195.365 240.5 228.01c4.865 4.406 10.083 6.646 15.5 6.646 5.406 0 10.615-2.219 15.469-6.604C307.74 195.375 431.042 90.667 501.313 31.156a10.66 10.66 0 0 0 1.5-14.719A42.36 42.36 0 0 0 469.333 0H42.667A42.356 42.356 0 0 0 9.188 16.438a10.658 10.658 0 0 0 1.5 14.718z" fill="url(#a)"/><path d="M505.813 63.406a10.618 10.618 0 0 0-11.375 1.542c-46.021 39.01-106.656 90.552-152.385 129.885a10.658 10.658 0 0 0 .292 16.406c42.49 34.031 106.521 80.844 152.76 114.115a10.667 10.667 0 0 0 16.896-8.657V73.083a10.663 10.663 0 0 0-6.188-9.677z" fill="url(#b)"/><path d="M16.896 325.354c46.25-33.271 110.292-80.083 152.771-114.115a10.659 10.659 0 0 0 .292-16.406C124.229 155.5 63.583 103.958 17.563 64.948A10.668 10.668 0 0 0 0 73.083v243.615a10.663 10.663 0 0 0 16.896 8.656z" fill="url(#c)"/><path d="M498.927 354.375c-44.656-31.948-126.917-91.51-176.021-131.365a10.69 10.69 0 0 0-13.729.24c-9.635 8.406-17.698 15.49-23.417 20.635-17.563 15.854-41.938 15.854-59.542-.021-5.698-5.135-13.76-12.24-23.396-20.615a10.624 10.624 0 0 0-13.719-.24c-48.938 39.719-131.292 99.354-176.021 131.365a10.665 10.665 0 0 0-1.604 15.937A42.74 42.74 0 0 0 42.667 384h426.667a42.796 42.796 0 0 0 31.198-13.688 10.666 10.666 0 0 0-1.605-15.937z" fill="url(#d)"/></svg>