<svg xmlns="http://www.w3.org/2000/svg" viewBox="0 0 512 450"><path d="M165 300h272c6.7 0 12.6-4.4 14.4-10.9l60-210c1.3-4.5.4-9.4-2.4-13.2-2.8-3.8-7.3-6-12-6H130.4l-10.7-48.3C118.1 4.9 112 0 105 0H15C6.7 0 0 6.7 0 15s6.7 15 15 15h78c1.9 8.6 51.3 230.9 54.2 243.7-15.9 6.9-27.1 22.8-27.1 41.3 0 24.8 20.2 45 45 45h272c8.3 0 15-6.7 15-15s-6.7-15-15-15H165c-8.3 0-15-6.7-15-15s6.7-15 15-15zM477.1 90l-51.4 180H177L137 90h340.1zM150 405c0 24.8 20.2 45 45 45s45-20.2 45-45-20.2-45-45-45-45 20.2-45 45zm45-15c8.3 0 15 6.7 15 15s-6.7 15-15 15-15-6.7-15-15 6.7-15 15-15zm167 15c0 24.8 20.2 45 45 45s45-20.2 45-45-20.2-45-45-45-45 20.2-45 45zm45-15c8.3 0 15 6.7 15 15s-6.7 15-15 15-15-6.7-15-15 6.7-15 15-15z"/></svg>