<svg width="35" height="37" viewBox="0 0 35 37" xmlns="http://www.w3.org/2000/svg"><path fill="#303030" d="M26.276 28h-16.16l8.08 9 8.08-9z" data-name="Слой 2"/><rect width="35" height="29" rx="2.3" fill="#303030"/><path d="M21.98 5.22v6.75a3.612 3.612 0 0 1-1.141 2.93 4.444 4.444 0 0 1-2.962 1.134h-.016a5.416 5.416 0 0 1-3.407-1.527l-2.047 3.94a11.076 11.076 0 0 0 5.47 1.536c.273 0 .54-.012.805-.03.096-.007.19-.018.284-.027.162-.015.324-.033.483-.056q.175-.025.348-.056c.125-.022.247-.048.37-.075.132-.029.265-.057.395-.09.048-.014.094-.03.142-.043a8.933 8.933 0 0 0 1.057-.368l.04-.015a8.69 8.69 0 0 0 .525-.248l.079-.04a8.603 8.603 0 0 0 1.623-1.088 7.393 7.393 0 0 0 2.423-6.048v-6.58z" fill="#f0b644"/><path d="M17.51 8.82l2.905 4.821c.574-.623.41-1.654.41-2.772V4.944L19.631 2.67h-3.56l-9.02 17.12 4.751-.01zm-3.984-3.307H9.287l.028 7.993zM26.3 16.526h-4.536l1.7 3.219h-.027l.006.01 4.558-.01zM18.54 24.2a1.163 1.163 0 0 0-.167-1.445 1.233 1.233 0 0 0-.91-.34h-1.399v3.142h.634V22.99h.748a.589.589 0 0 1 .492.183.58.58 0 0 1 .147.403.593.593 0 0 1-.157.403.624.624 0 0 1-.477.173h-.325l.839 1.404h.722l-.591-.964a1.084 1.084 0 0 0 .445-.393zm-4.525 1.037a1.332 1.332 0 0 1-.958.372 1.356 1.356 0 0 1-.99-.387 1.434 1.434 0 0 1-.398-1.043v-1.765h.634v1.797a.793.793 0 0 0 .22.597.697.697 0 0 0 .534.225.761.761 0 0 0 .54-.23.773.773 0 0 0 .209-.592v-1.797h.634v1.765a1.402 1.402 0 0 1-.425 1.058zm8.47 0a1.332 1.332 0 0 1-.958.372 1.356 1.356 0 0 1-.99-.387 1.435 1.435 0 0 1-.398-1.043v-1.765h.633v1.797a.793.793 0 0 0 .22.597.697.697 0 0 0 .535.225.761.761 0 0 0 .54-.23.773.773 0 0 0 .209-.592v-1.797h.634v1.765a1.402 1.402 0 0 1-.425 1.058zm-14.176-.406l.55.759.55-.759zm19.456-2.455l-1.608 1.781-1.638-1.781h-.08v3.18h.618v-1.64l1.084 1.168 1.037-1.163.021 1.636h.644v-3.181z" fill="#f0b644"/><path d="M8.52 22.656l-1.661 3.29h.698l1.005-2.1 1.01 2.1h.718l-1.66-3.29z" fill="#f0b644"/></svg>