<svg data-name="Слой 1" xmlns="http://www.w3.org/2000/svg" viewBox="0 0 97.052 79.321"><path d="M68.484 13.17v30.246c0 5.887-1.664 10.173-5.115 13.13a19.91 19.91 0 0 1-13.271 5.081c-.025 0-.047-.003-.072-.003-8.302 0-14.92-6.49-15.266-6.84l-9.168 17.652a49.627 49.627 0 0 0 24.506 6.885c1.225 0 2.423-.053 3.606-.136.43-.03.849-.078 1.273-.119.729-.07 1.451-.151 2.163-.253q.786-.112 1.56-.249c.56-.1 1.11-.217 1.66-.337.592-.13 1.187-.254 1.768-.407.216-.057.424-.129.638-.19a40.017 40.017 0 0 0 4.737-1.646c.059-.025.12-.046.178-.071.8-.341 1.58-.716 2.351-1.109l.353-.18a38.55 38.55 0 0 0 7.273-4.873l.002-.002c8.097-6.949 10.857-16.066 10.857-27.098V13.17z" fill="#f4f4f4"/><path d="M48.45 28.49l13.46 22.34c2.661-2.887 1.897-7.663 1.897-12.843V10.536L58.282 0H41.789L0 79.32l22.012-.05zM29.996 13.17h-19.64l.128 37.035L29.996 13.17zm45.913 65.937l.027.052 21.116-.052-7.879-14.914H68.156l7.879 14.914h-.126z" fill="#f4f4f4"/></svg>