<svg data-name="Capa 1" xmlns="http://www.w3.org/2000/svg" xmlns:xlink="http://www.w3.org/1999/xlink" viewBox="0 0 512 512"><defs><linearGradient id="a" x1="67.514" y1="220.998" x2="378.428" y2="220.998" gradientUnits="userSpaceOnUse"><stop offset="0" stop-color="#121536"/><stop offset="1" stop-color="#424770"/></linearGradient><linearGradient id="b" x1="0" y1="290.997" x2="310.915" y2="290.997" xlink:href="#a"/><linearGradient id="c" x1="238.03" y1="117.012" x2="289.591" y2="117.012" xlink:href="#a"/><linearGradient id="d" x1="461.694" y1="302.466" x2="512" y2="302.466" xlink:href="#a"/><linearGradient id="e" x1="461.694" y1="93.225" x2="512" y2="93.225" xlink:href="#a"/></defs><path d="M67.514 39.876H222.96a15.052 15.052 0 0 1 10.652 4.407l103.002 102.892a15.105 15.105 0 0 1 4.417 10.662v284.16h22.337a15.06 15.06 0 0 0 15.06-15.06V15.06A15.06 15.06 0 0 0 363.368 0H82.573a15.06 15.06 0 0 0-15.06 15.059z" fill="url(#a)"/><path d="M207.912 157.827V69.993H15.06A15.06 15.06 0 0 0 0 85.053V496.94A15.06 15.06 0 0 0 15.059 512h280.797a15.06 15.06 0 0 0 15.059-15.059V172.885H222.97a15.058 15.058 0 0 1-15.059-15.058zM63.62 149.384h59.07a15.059 15.059 0 0 1 0 30.117H63.62a15.059 15.059 0 0 1 0-30.117zm0 253.108h183.677a15.059 15.059 0 1 1 0 30.118H63.619a15.059 15.059 0 0 1 0-30.118zm-15.06-57.374a15.05 15.05 0 0 1 15.06-15.059h183.677a15.059 15.059 0 1 1 0 30.118H63.619a15.048 15.048 0 0 1-15.06-15.059zm213.796-72.423a15.064 15.064 0 0 1-15.059 15.06H63.619a15.059 15.059 0 0 1 0-30.119h183.677a15.064 15.064 0 0 1 15.059 15.06z" fill="url(#b)"/><path d="M238.03 91.267v51.5h51.561l-51.561-51.51z" fill="url(#c)"/><path d="M462.595 403.988l19.687 43.254a5.02 5.02 0 0 0 9.138 0l19.679-43.255a10.03 10.03 0 0 0 .901-4.157V154.75h-50.306v245.08a10.043 10.043 0 0 0 .901 4.16z" fill="url(#d)"/><path d="M486.852 61.817a25.16 25.16 0 0 0-25.158 25.109v37.707H512V86.926a25.159 25.159 0 0 0-25.148-25.109z" fill="url(#e)"/></svg>