<svg data-name="Слой 1" xmlns="http://www.w3.org/2000/svg" xmlns:xlink="http://www.w3.org/1999/xlink" viewBox="0 0 511.887 512"><defs><linearGradient id="a" x1="0" y1="336.539" x2="320.95" y2="336.539" gradientUnits="userSpaceOnUse"><stop offset="0" stop-color="#121536"/><stop offset="1" stop-color="#424770"/></linearGradient><linearGradient id="b" x1="348.942" y1="362.124" x2="511.887" y2="362.124" xlink:href="#a"/><linearGradient id="c" x1="142.34" y1="120.914" x2="178.609" y2="120.914" xlink:href="#a"/><linearGradient id="d" x1="39.563" y1="146.967" x2="281.387" y2="146.967" xlink:href="#a"/></defs><path d="M305.383 161.078c-15.867 57.738-79.218 162.852-144.91 162.852-66.973 0-129.82-107.953-144.906-162.852C6.5 161.078 0 166.668 0 176.074v275.137c0 8.281 6.176 14.996 13.793 14.996H49.18a57.502 57.502 0 0 0 112.594 0h145.379c7.62 0 13.797-6.715 13.797-14.996V176.074c0-9.406-6.5-14.996-15.567-14.996zM124.918 473.957c-17.27 17.27-46.937 4.984-46.937-19.445 0-24.426 29.668-36.711 46.937-19.442a27.497 27.497 0 0 1 0 38.887z" fill-rule="evenodd" fill="url(#a)"/><path d="M465.438 314.043h-69.543a14.996 14.996 0 0 1 0-29.992h51.668l-11.531-19.348c-15.727-26.394-39.785-44.562-68.34-51.945a14.997 14.997 0 0 0-18.75 14.52v223.738a15.025 15.025 0 0 0 14.996 14.996h10.14a57.5 57.5 0 0 0 112.673 0h10.14a14.997 14.997 0 0 0 14.996-14.996v-89.98c0-26.216-20.379-46.415-46.449-46.993zm-15.582 159.914c-17.27 17.27-46.938 4.984-46.938-19.445 0-24.426 29.668-36.711 46.938-19.442a27.497 27.497 0 0 1 0 38.887z" fill-rule="evenodd" fill="url(#b)"/><path d="M173.297 133.738a18.137 18.137 0 0 0 0-25.648c-11.386-11.387-30.957-3.29-30.957 12.824s19.57 24.211 30.957 12.824z" fill-rule="evenodd" fill="url(#c)"/><path d="M160.473 293.934c23.746 0 55.574-28.727 80.242-65.528 22.801-34.015 40.672-75.746 40.672-107.492a120.912 120.912 0 1 0-241.824 0c0 31.746 17.871 73.477 40.672 107.492 24.664 36.801 56.496 65.528 80.238 65.528zm0-221.149a48.127 48.127 0 1 1-48.125 48.13 48.132 48.132 0 0 1 48.125-48.13z" fill-rule="evenodd" fill="url(#d)"/></svg>