<svg data-name="Capa 1" xmlns="http://www.w3.org/2000/svg" xmlns:xlink="http://www.w3.org/1999/xlink" viewBox="0 0 511.982 512"><defs><linearGradient id="a" x1="225.957" y1="144.226" x2="511.991" y2="144.226" gradientUnits="userSpaceOnUse"><stop offset="0" stop-color="#121536"/><stop offset="1" stop-color="#424770"/></linearGradient><linearGradient id="b" x1=".009" y1="297.396" x2="429.277" y2="297.396" xlink:href="#a"/><linearGradient id="c" x1="59.791" y1="92.788" x2="186.35" y2="92.788" xlink:href="#a"/><linearGradient id="d" x1="356.003" y1="388.953" x2="482.532" y2="388.953" xlink:href="#a"/></defs><path d="M481.874 0H312.837a30.115 30.115 0 0 0-30.117 30.117V154.38l-52.344 52.343a15.066 15.066 0 0 0 7.108 25.289l25.66 6.194-24.546 24.545a15.06 15.06 0 0 0 21.303 21.293l43.52-43.53a15.06 15.06 0 0 0-7.108-25.277c-23.382-5.648-18.255-4.412-25.66-6.195l11.173-11.173 22.177-22.186h177.87a30.115 30.115 0 0 0 30.118-30.117V30.117A30.115 30.115 0 0 0 481.874 0zm-27.105 132.766H339.942a15.059 15.059 0 0 1 0-30.117H454.77a15.059 15.059 0 1 1 0 30.117zm0-61.82H339.942a15.059 15.059 0 1 1 0-30.117H454.77a15.059 15.059 0 1 1 0 30.117z" transform="translate(-.009)" fill="url(#a)"/><path d="M318.651 394.689a27.97 27.97 0 0 1-39.571.01L117.325 232.947a27.93 27.93 0 0 1 0-39.545 10161.56 10161.56 0 0 1 16.098-16.076l-94.55-94.535C-48.72 182.11 26.381 299.057 119.68 392.344c93.76 93.762 210.524 168.165 309.597 80.796l-94.548-94.535a24248.56 24248.56 0 0 0-16.077 16.084z" transform="translate(-.009)" fill="url(#b)"/><path d="M154.881 155.856c.068-.06 15.16-15.158 28.529-28.523a10.036 10.036 0 0 0-.001-14.196L102.733 32.46a10.037 10.037 0 0 0-14.19-.006C75.564 45.418 60.812 60.177 59.79 61.198l94.88 94.859c.07-.07.14-.141.21-.201z" transform="translate(-.009)" fill="url(#c)"/><path d="M398.93 328.627a10.039 10.039 0 0 0-14.196.001l-28.731 28.732 94.868 94.859c5.545-5.52 18.59-18.582 28.737-28.77a10.035 10.035 0 0 0-.019-14.18z" transform="translate(-.009)" fill="url(#d)"/></svg>