<svg data-name="Capa 1" xmlns="http://www.w3.org/2000/svg" xmlns:xlink="http://www.w3.org/1999/xlink" viewBox="0 0 447.999 512.009"><defs><linearGradient id="a" x1="85.334" y1="42.666" x2="298.667" y2="42.666" gradientUnits="userSpaceOnUse"><stop offset="0" stop-color="#121536"/><stop offset="1" stop-color="#424770"/><stop offset="1"/></linearGradient><linearGradient id="b" x1="213.333" y1="394.666" x2="447.999" y2="394.666" xlink:href="#a"/><linearGradient id="c" x1="0" y1="277.338" x2="383.979" y2="277.338" xlink:href="#a"/></defs><path d="M96 85.333h192a10.671 10.671 0 0 0 10.667-10.667V53.333a32.025 32.025 0 0 0-32-32h-37.845a42.444 42.444 0 0 0-73.643 0h-37.845a32.053 32.053 0 0 0-32 32v21.333A10.669 10.669 0 0 0 96 85.333z" fill="url(#a)"/><path d="M330.666 277.333a117.334 117.334 0 1 0 117.333 117.334 117.471 117.471 0 0 0-117.333-117.334zm71.552 82.219l-85.333 85.333a10.712 10.712 0 0 1-15.104 0l-42.667-42.667a10.665 10.665 0 1 1 15.083-15.083l35.136 35.115 77.781-77.781a10.673 10.673 0 0 1 15.104 15.083z" fill="url(#b)"/><path d="M232.192 492.203A137.604 137.604 0 0 1 192 394.667C192 318.208 254.208 256 330.667 256a138.84 138.84 0 0 1 39.616 5.824 10.444 10.444 0 0 0 9.408-1.664 10.63 10.63 0 0 0 4.288-8.555V74.667a32.02 32.02 0 0 0-31.979-32h-21.333A10.671 10.671 0 0 0 320 53.334v21.333a32.053 32.053 0 0 1-32 32H96a32.025 32.025 0 0 1-32-32V53.333a10.671 10.671 0 0 0-10.667-10.667H32a32.025 32.025 0 0 0-32 32V480a32.025 32.025 0 0 0 32 32h194.24a2.882 2.882 0 0 0 .427 0 10.67 10.67 0 0 0 5.525-19.797z" fill="url(#c)"/></svg>