<svg data-name="Capa 1" xmlns="http://www.w3.org/2000/svg" viewBox="0 0 30.672 33.834"><defs><linearGradient id="a" y1="16.917" x2="30.672" y2="16.917" gradientUnits="userSpaceOnUse"><stop offset="0" stop-color="#121536"/><stop offset="1" stop-color="#424770"/></linearGradient></defs><path d="M30.672 29.334v4.5H0v-4.501c0-2.125 1.832-4.741 4.07-5.804l4.98-2.366 3.457 7.204 1.77-4.799a5.67 5.67 0 0 0 1.059.154 5.682 5.682 0 0 0 1.059-.154l1.68 4.563 3.389-7.048 5.141 2.445c2.235 1.063 4.067 3.679 4.067 5.806zM4.524 13.562v-3.25A1.557 1.557 0 0 1 5.244 9a10.162 10.162 0 0 1 20.19 0 1.558 1.558 0 0 1 .719 1.312v3.25a1.563 1.563 0 0 1-3.126 0v-.683c-.846 4.255-3.961 8.205-7.688 8.205s-6.842-3.95-7.688-8.205v.683a1.56 1.56 0 0 1-1.1 1.485 9.12 9.12 0 0 0 3.908 5.146 1.594 1.594 0 0 1 1.227.13c.692.36 1.045 1.06.783 1.56a1.27 1.27 0 0 1-1.729.251 1.512 1.512 0 0 1-.864-1.126 10.13 10.13 0 0 1-4.37-5.998 1.56 1.56 0 0 1-.982-1.448zm1.785-4.927a.455.455 0 0 1 .137.021.497.497 0 0 1 .252.218 1.558 1.558 0 0 1 .775.733C7.934 5.286 11.274 3 15.336 3s7.402 2.286 7.863 6.607a1.55 1.55 0 0 1 1.185-.837 9.153 9.153 0 0 0-18.075-.135z" fill="url(#a)"/></svg>