<svg xmlns="http://www.w3.org/2000/svg" xmlns:xlink="http://www.w3.org/1999/xlink" viewBox="0 0 247.127 270.469"><defs><linearGradient id="a" x1="120.121" y1="167.921" x2="120.121" gradientUnits="userSpaceOnUse"><stop offset="0" stop-color="#fff"/><stop offset=".063" stop-color="#fff" stop-opacity=".855"/><stop offset=".16" stop-color="#fff" stop-opacity=".657"/><stop offset=".262" stop-color="#fff" stop-opacity=".481"/><stop offset=".367" stop-color="#fff" stop-opacity=".332"/><stop offset=".475" stop-color="#fff" stop-opacity=".212"/><stop offset=".588" stop-color="#fff" stop-opacity=".118"/><stop offset=".707" stop-color="#fff" stop-opacity=".052"/><stop offset=".838" stop-color="#fff" stop-opacity=".013"/><stop offset="1" stop-color="#fff" stop-opacity="0"/></linearGradient><linearGradient id="b" x1="120.121" y1="113.574" x2="120.121" xlink:href="#a"/></defs><path d="M123.566 0L0 214.013h247.127zM71.622 129.978l16.437 28.473 35.507-61.498 35.502 61.491 16.437-28.465 36.97 64.026H34.655z" fill="#004258"/><path d="M30.23 161.654a225.207 225.207 0 0 0 19.485 6.267l21.907-37.942 16.437 28.472 35.507-61.498 35.502 61.491 16.437-28.465 17.012 29.462a151.584 151.584 0 0 0 17.495-9.713L123.566 0z" opacity=".2" fill="url(#a)"/><path d="M62.649 105.506a130.853 130.853 0 0 0 51.395 7.938l9.522-16.491 8.372 14.5a123.926 123.926 0 0 0 45.656-17.875L123.566 0z" opacity=".2" fill="url(#b)"/><path d="M22.38 232.593v37.196H9.46q-2.04 0-2.04-1.496a1.357 1.357 0 0 1 1.123-1.36 3.076 3.076 0 0 0 1.394-.68 2.511 2.511 0 0 0 .272-1.428v-27.268a2.19 2.19 0 0 0-.272-1.292 4.004 4.004 0 0 0-1.428-.816 1.348 1.348 0 0 1-1.088-1.36q0-1.495 2.04-1.496zm2.313 0h11.016v9.724q0 1.565-1.36 1.564a1.469 1.469 0 0 1-1.428-1.156q-2.04-6.187-8.228-6.868zm0 19.924v-3.264a5.195 5.195 0 0 0 3.264-3.57q.475-2.278 1.768-2.278.816 0 1.054.442a4.68 4.68 0 0 1 .238 1.87v10.404q0 2.244-1.292 2.244-1.158 0-1.632-1.7-.885-3.535-3.4-4.148zm0 14.348a10.39 10.39 0 0 0 5.236-2.108 11.35 11.35 0 0 0 3.196-5.032q.678-1.495 1.564-1.496 1.428 0 1.428 1.972v9.588H24.693zm37.594-6.562l-2.574 9.486h-7.208l-9.657-32.572a1.959 1.959 0 0 0-1.088-1.428 3.158 3.158 0 0 1-.884-.408 1.242 1.242 0 0 1-.476-1.088q0-1.699 2.652-1.7h12.036a6.169 6.169 0 0 1 2.312.306 1.235 1.235 0 0 1 .68 1.256 1.4 1.4 0 0 1-.988 1.359 2.065 2.065 0 0 0-1.12 1.834v.679zm-.366-9.033l3.121-11.499.11-1.218a2.598 2.598 0 0 0-1.496-2.71l-.884-.338a1.328 1.328 0 0 1-1.02-1.354q0-1.557 2.312-1.558h6.596a4.148 4.148 0 0 1 1.87.272q.441.273.442 1.224a1.442 1.442 0 0 1-.955 1.292l-1.433.68q-1.913.953-2.935 4.42l-4.368 15.902zm27.371-18.677v37.196h-12.92q-2.04 0-2.04-1.496a1.357 1.357 0 0 1 1.121-1.36 3.076 3.076 0 0 0 1.394-.68 2.511 2.511 0 0 0 .272-1.428v-27.268a2.19 2.19 0 0 0-.272-1.292 4.004 4.004 0 0 0-1.428-.816 1.348 1.348 0 0 1-1.087-1.36q0-1.495 2.04-1.496zm2.312 0h11.015v9.724q0 1.565-1.36 1.564a1.469 1.469 0 0 1-1.427-1.156q-2.041-6.187-8.228-6.868zm0 19.924v-3.264a5.195 5.195 0 0 0 3.263-3.57q.476-2.278 1.768-2.278.816 0 1.054.442a4.68 4.68 0 0 1 .238 1.87v10.404q0 2.244-1.292 2.244-1.157 0-1.632-1.7-.884-3.535-3.4-4.148zm0 14.348a10.39 10.39 0 0 0 5.235-2.108 11.35 11.35 0 0 0 3.196-5.032q.68-1.495 1.564-1.496 1.428 0 1.428 1.972v9.588H91.604zm19.855-34.272h12.104v32.028a2.39 2.39 0 0 0 .34 1.53 3.567 3.567 0 0 0 1.768.646 1.424 1.424 0 0 1 1.224 1.428q0 1.565-2.38 1.564h-13.872q-1.974 0-1.972-1.496a1.335 1.335 0 0 1 1.088-1.394 2.897 2.897 0 0 0 1.394-.68 2.3 2.3 0 0 0 .306-1.394v-27.268a2.19 2.19 0 0 0-.272-1.292 3.728 3.728 0 0 0-1.394-.782 1.48 1.48 0 0 1-1.122-1.394q0-1.495 1.972-1.496zm14.212 0h.68a40.986 40.986 0 0 1 6.222.34 10.523 10.523 0 0 1 3.774 1.428 8.35 8.35 0 0 1 4.352 7.752q0 4.557-3.06 6.8a9.473 9.473 0 0 1-2.244 1.36 30.786 30.786 0 0 1-3.604 1.292 19.455 19.455 0 0 1 3.4.646 11.287 11.287 0 0 1 2.38 1.122 5.32 5.32 0 0 1 2.924 4.828v5.644q0 .816.544.816a.97.97 0 0 0 .816-.612 2.224 2.224 0 0 1 1.36-.816 1.478 1.478 0 0 1 1.088.68 1.221 1.221 0 0 1 .34.748 4.213 4.213 0 0 1-.952 2.346 10.196 10.196 0 0 1-2.38 2.346 10.024 10.024 0 0 1-4.896 1.156 7.628 7.628 0 0 1-5.644-2.04 7.723 7.723 0 0 1-2.04-5.712v-4.556q0-4.488-3.06-4.76v-2.924q3.06-.34 3.06-3.74v-7.208a4.189 4.189 0 0 0-.646-2.55 4.718 4.718 0 0 0-2.414-1.394zm35.768 0v37.196h-12.92q-2.04 0-2.04-1.496a1.357 1.357 0 0 1 1.122-1.36 3.076 3.076 0 0 0 1.394-.68 2.511 2.511 0 0 0 .272-1.428v-27.268a2.19 2.19 0 0 0-.272-1.292 4.004 4.004 0 0 0-1.428-.816 1.348 1.348 0 0 1-1.088-1.36q0-1.495 2.04-1.496zm2.312 0h11.016v9.724q0 1.565-1.36 1.564a1.469 1.469 0 0 1-1.428-1.156q-2.04-6.187-8.228-6.868zm0 19.924v-3.264a5.195 5.195 0 0 0 3.264-3.57q.475-2.278 1.768-2.278.816 0 1.054.442a4.68 4.68 0 0 1 .238 1.87v10.404q0 2.244-1.292 2.244-1.158 0-1.632-1.7-.885-3.535-3.4-4.148zm0 14.348a10.39 10.39 0 0 0 5.236-2.108 11.35 11.35 0 0 0 3.196-5.032q.679-1.495 1.564-1.496 1.428 0 1.428 1.972v9.588H163.75zm30.055-35.02v3.128q-3.537.953-3.536 3.876 0 2.448 2.72 4.012l3.4 1.632 2.38 1.02a21.58 21.58 0 0 1 5.712 3.468 11.239 11.239 0 0 1 3.944 8.704 12.067 12.067 0 0 1-3.842 9.146 13.804 13.804 0 0 1-9.894 3.638v-3.06q4.351-.951 4.352-4.216a3.88 3.88 0 0 0-1.19-2.958 17.395 17.395 0 0 0-4.726-2.618 41.831 41.831 0 0 1-7.004-3.536 11.529 11.529 0 0 1-5.032-9.792 12.182 12.182 0 0 1 3.45-8.976 12.486 12.486 0 0 1 9.266-3.468zm-1.36 38.624a11.586 11.586 0 0 1-4.964-1.224 8.473 8.473 0 0 0-2.244-.748q-.612 0-1.564 1.088a1.572 1.572 0 0 1-1.088.544q-1.496 0-1.496-2.312v-9.86q0-1.836 1.564-1.836 1.155 0 1.496 1.632a16.798 16.798 0 0 0 4.148 7.412 7.957 7.957 0 0 0 4.148 2.244zm11.199-27.248a10.358 10.358 0 0 0-2.668-5.248 10.201 10.201 0 0 0-4.927-2.895v-2.96a18.24 18.24 0 0 1 6.18 1.645l.892.19a1.031 1.031 0 0 0 .816-.408l.544-.816a1.31 1.31 0 0 1 1.156-.612q1.36 0 1.36 2.244v8.908q0 1.904-1.643 1.904-1.3 0-1.71-1.952zm14.437-10.628v3.4q-2.653 1.496-3.604 6.256l-.272 1.632q-.204 1.77-1.632 1.768-1.632 0-1.632-1.836v-11.22zm14.416 0v32.028a2.857 2.857 0 0 0 .272 1.564 3.762 3.762 0 0 0 1.768.68q1.359.204 1.36 1.36 0 1.565-2.516 1.564h-14.008q-2.448 0-2.448-1.564 0-1.156 1.326-1.394a2.99 2.99 0 0 0 1.666-.646 2.563 2.563 0 0 0 .34-1.564v-32.028zm9.315 0v11.22q0 1.836-1.564 1.836-1.427 0-1.768-1.768l-.272-1.632q-.68-4.692-3.467-6.256v-3.4z" fill="#043743"/></svg>